<svg xmlns="http://www.w3.org/2000/svg" width="652" height="652"  xmlns:v="https://vecta.io/nano"><g transform="matrix(1.408952 0 0 1.408952 -234.29319 -158.89158)"><g fill-rule="evenodd"><rect fill="#4dd0e1" transform="rotate(293.751)" rx="226.709" ry="108.514" y="394.084" x="-381.545" height="217.027" width="453.418"/><rect fill="#03a9f4" transform="rotate(323.751)" rx="226.709" ry="108.514" y="404.167" x="-109.503" height="217.027" width="453.417"/><rect fill="#1565c0" transform="rotate(353.751)" rx="226.709" ry="108.514" y="276.877" x="131.135" height="217.027" width="453.417"/></g><path d="M318.753 281.525q8.838-3.03 19.444-5.05 10.606-2.273 21.212-2.273 14.394 0 26.767 4.798 12.374 4.798 19.949 17.172 4.798-5.303 10.858-9.343 6.061-4.293 12.626-7.071 6.566-2.778 13.384-4.04 7.071-1.515 13.636-1.515 8.333 0 15.909 2.273 7.576 2.273 13.131 7.071 5.808 4.545 9.091 11.616 3.535 7.071 3.535 16.414 0 14.141-6.313 23.99-6.061 9.848-17.172 16.161-11.111 6.061-26.262 8.838-15.151 2.778-33.333 2.778 1.768 10.606 7.576 15.151 6.061 4.293 18.939 4.293 8.081 0 16.414-1.263 8.333-1.515 15.656-4.293l2.778 29.545q-9.596 3.283-20.202 5.303-10.353 2.02-20.959 2.02-13.889 0-26.01-4.545-12.121-4.798-20.202-16.919-4.293 5.05-10.353 9.091-5.808 4.04-12.626 6.818-6.566 2.778-13.636 4.04-7.071 1.515-13.889 1.515-8.333 0-15.909-2.273-7.323-2.02-13.131-6.566-5.808-4.545-9.343-11.616-3.283-7.071-3.283-16.919 0-14.141 6.061-23.99 6.313-9.848 17.424-15.909 11.111-6.313 26.262-9.091 15.151-2.778 33.333-2.778-1.768-10.606-7.828-14.899-5.808-4.545-18.687-4.545-8.081 0-16.414 1.515-8.333 1.263-15.656 4.04zm26.01 102.777q12.879 0 21.969-9.091 9.343-9.343 12.374-24.495-15.656.505-25.252 2.778-9.343 2.02-14.394 5.05-5.05 3.03-6.818 6.818-1.515 3.535-1.515 6.818 0 12.121 13.636 12.121zm105.807-80.302q-12.879 0-22.222 9.343-9.091 9.091-12.121 24.242 15.656-.505 25-2.525 9.596-2.273 14.646-5.303 5.05-3.03 6.566-6.566 1.768-3.535 1.768-7.071 0-12.121-13.636-12.121z" fill="#fff"/></g></svg>